<svg width="160" height="160" viewBox="0 0 160 160" fill="none" xmlns="http://www.w3.org/2000/svg">
<path fill-rule="evenodd" clip-rule="evenodd" d="M87 0C96.9411 0 105 8.05888 105 18V142C105 151.941 96.9411 160 87 160H18C8.05888 160 0 151.941 0 142V18C1.03088e-06 8.05888 8.05888 2.65756e-07 18 0H87ZM37.5 68C30.5964 68 25 73.5964 25 80.5C25 87.4036 30.5964 93 37.5 93C44.4036 93 50 87.4036 50 80.5C50 73.5964 44.4036 68 37.5 68Z" fill="white"/>
<path d="M145 0C153.284 0 160 6.71573 160 15V145C160 153.284 153.284 160 145 160C136.716 160 130 153.284 130 145V15C130 6.71573 136.716 0 145 0Z" fill="white"/>
</svg>
